<?xml version="1.0" encoding="UTF-8"?>
<svg id="_レイヤー_1" data-name="レイヤー 1" xmlns="http://www.w3.org/2000/svg" viewBox="0 0 629.2 155.5">
  <defs>
    <style>
      .cls-1 {
        stroke-width: 0px;
      }

      .cls-2 {
        isolation: isolate;
      }
    </style>
  </defs>
  <g id="_レイヤー_2" data-name="レイヤー 2">
    <g id="_レイヤー_1-2" data-name="レイヤー 1-2">
      <g class="cls-2">
        <path class="cls-1" d="m0,153.3v-13.1l16.9-2.9V18.2L0,15.3V2.1h37.6l74.1,117.8.6-.2V18.2l-18.6-2.9V2.1h54.3v13.2l-16.9,2.9v135.1h-18.7L36.4,34.8l-.6.2v102.3l18.6,2.9v13.1H0Z"/>
        <path class="cls-1" d="m165.1,153.3v-13.1l16.9-2.9V18.2l-16.9-2.9V2.1h111.9v36.3h-16.4l-2.3-20.5h-55.8v49.2h55.7v16.1h-55.7v54.7h59.2l2.3-20.9h16.3v36.2h-115.2v.1Z"/>
        <path class="cls-1" d="m347.8,153.3l-35.3-136.4-12.8-1.6V2.1h49v13.2l-15.7,2.4,19.7,83.2,4.6,19.4.6.1,6-19.4L394.3,2.2h18l30.7,98.8,5.9,20.6h.6l5.4-20.6,19.5-83.3-16.9-2.4V2.1h48.2v13.2l-11.9,1.6-33.8,136.4h-19.4l-32.8-104.7-4.2-15.2h-.6l-4,15.3-32.9,104.6h-18.3Z"/>
        <path class="cls-1" d="m576.2,155.5c-9.2,0-18.1-1.3-26.6-4s-16.6-6.9-24.4-12.5v-32.3h15.9l3.4,23.8c4.5,2.8,9.4,4.9,14.6,6.4,5.3,1.5,10.9,2.3,17,2.3,6.9,0,12.8-1.1,17.6-3.2,4.8-2.1,8.5-5,11.1-8.8,2.6-3.7,3.8-8.1,3.8-13.1,0-4.6-1.1-8.7-3.3-12.2s-5.9-6.6-11-9.3c-5.1-2.7-12-5-20.8-7-10.4-2.4-19.2-5.7-26.3-9.7-7.2-4-12.6-9-16.3-14.7-3.7-5.8-5.6-12.4-5.6-19.9,0-7.9,2.1-14.9,6.3-21.2,4.2-6.2,10-11.1,17.5-14.7,7.5-3.6,16.2-5.4,26.2-5.4,10.6,0,19.9,1.6,28.1,4.8,8.1,3.2,14.8,7.1,20.1,11.7v30.2h-15.9l-3.4-21.6c-3.1-2.5-7-4.6-11.6-6.2-4.6-1.7-10.4-2.5-17.2-2.5-5.8,0-10.9,1-15.4,3.1-4.4,2-7.9,4.9-10.4,8.6s-3.7,8-3.7,13c0,4.4,1.1,8.2,3.4,11.4,2.2,3.3,5.9,6.1,11,8.6s11.9,4.8,20.4,6.9c15.9,3.9,28,9.8,36.2,17.5s12.3,17.2,12.3,28.6c0,8.1-2.2,15.3-6.5,21.5-4.4,6.3-10.5,11.2-18.4,14.7-8.1,3.4-17.4,5.2-28.1,5.2Z"/>
      </g>
    </g>
  </g>
</svg>