<?xml version="1.0" encoding="UTF-8"?>
<svg id="_レイヤー_1" data-name="レイヤー 1" xmlns="http://www.w3.org/2000/svg" viewBox="0 0 22 23">
  <defs>
    <style>
      .cls-1 {
        fill-rule: evenodd;
        stroke-width: 0px;
      }
    </style>
  </defs>
  <path id="icon_cart.svg" data-name="icon cart.svg" class="cls-1" d="m19.26,19.4c-.99-.04-1.83.72-1.88,1.72s.73,1.83,1.72,1.88c.99.04,1.83-.73,1.88-1.72,0-.03,0-.05,0-.08.02-.97-.75-1.77-1.72-1.8Zm-13.57,0c-.99-.04-1.83.72-1.88,1.72s.73,1.83,1.72,1.88c.99.04,1.83-.73,1.88-1.72,0-.03,0-.05,0-.08.02-.97-.75-1.77-1.72-1.8Zm12.38-7l3.93-4.1V2.8H5.1l-.98-2.8H1.28C.56.01-.01.6,0,1.32c.01.7.58,1.27,1.28,1.28h1.06l3.43,9.7-1.83,5.8h16.57c.72-.01,1.29-.6,1.28-1.32-.01-.7-.58-1.27-1.28-1.28H7.45l.97-3.1h9.65Z"/>
</svg>